<?xml version="1.0" encoding="utf-8"?>
<!-- Generator: Adobe Illustrator 24.2.1, SVG Export Plug-In . SVG Version: 6.00 Build 0)  -->
<svg version="1.1" id="Layer_1" xmlns="http://www.w3.org/2000/svg" xmlns:xlink="http://www.w3.org/1999/xlink" x="0px" y="0px"
	 viewBox="0 0 1692 517" style="enable-background:new 0 0 1692 517;" xml:space="preserve">
<style type="text/css">
	.st0{clip-path:url(#SVGID_2_);}
	.st1{fill:#195CC1;}
	.st2{opacity:5.000000e-02;fill:#FFFFFF;enable-background:new    ;}
	.st3{fill:url(#SVGID_3_);}
</style>
<g>
	<defs>
		<rect id="SVGID_1_" width="1692" height="517"/>
	</defs>
	<clipPath id="SVGID_2_">
		<use xlink:href="#SVGID_1_"  style="overflow:visible;"/>
	</clipPath>
	<g transform="translate(-159 -5841)" class="st0">
		<path class="st1" d="M137.6,6393c62.2-79,157.8-232.3,251.6-305.5c347.6-270.7,504.1,31.9,1066.3-204.4
			c356.5-149.8,405.6,239.2,393.8,508.7L137.6,6393z"/>
		<path class="st2" d="M402.5,6565.4c-41.4-185.7,96.5-248,228-344.3c255.5-186.6,370.3-9.9,783.6-172.8s264.6,517.1,264.6,517.1
			L402.5,6565.4z"/>
		<linearGradient id="SVGID_3_" gradientUnits="userSpaceOnUse" x1="513.0005" y1="6294.2886" x2="1822.8029" y2="6294.2886">
			<stop  offset="0" style="stop-color:#2B75E0"/>
			<stop  offset="0.9944" style="stop-color:#195CC1"/>
		</linearGradient>
		<path class="st3" d="M1815.3,6565.4c41.4-185.7-96.5-248-228-344.3c-255.5-186.6-370.3-9.9-783.6-172.8
			c-413.4-162.9-264.6,517.1-264.6,517.1H1815.3z"/>
	</g>
</g>
</svg>
