<?xml version="1.0" encoding="utf-8"?>
<!-- Generator: Adobe Illustrator 24.2.1, SVG Export Plug-In . SVG Version: 6.00 Build 0)  -->
<svg version="1.1" id="Layer_1" xmlns="http://www.w3.org/2000/svg" xmlns:xlink="http://www.w3.org/1999/xlink" x="0px" y="0px"
	 viewBox="0 0 494.8 638.6" style="enable-background:new 0 0 494.8 638.6;" xml:space="preserve">
<style type="text/css">
	.st0{fill:#2D6FDD;}
	.st1{clip-path:url(#SVGID_2_);}
	.st2{opacity:0.3;fill:url(#SVGID_3_);enable-background:new    ;}
</style>
<path class="st0" d="M319.3,0c176.3,0-67.1,208.9,88.6,319.3s87.8,319.3-88.6,319.3S0,495.6,0,319.3S143,0,319.3,0z"/>
<g>
	<defs>
		<path id="SVGID_1_" d="M319.3,0c176.3,0-67.1,208.9,88.6,319.3s87.8,319.3-88.6,319.3S0,495.6,0,319.3S143,0,319.3,0z"/>
	</defs>
	<clipPath id="SVGID_2_">
		<use xlink:href="#SVGID_1_"  style="overflow:visible;"/>
	</clipPath>
	<g transform="translate(-297.858 -1341)" class="st1">
		
			<linearGradient id="SVGID_3_" gradientUnits="userSpaceOnUse" x1="-415.0809" y1="2201.3445" x2="-415.0809" y2="2200.3445" gradientTransform="matrix(-494.8363 0 0 638.6 -204851.7813 -1403799)">
			<stop  offset="0" style="stop-color:#DDDFF9"/>
			<stop  offset="1" style="stop-color:#5864FF"/>
		</linearGradient>
		<path class="st2" d="M473.4,1979.6c-176.3,0,67.1-208.9-88.6-319.3C229.1,1549.9,297,1341,473.4,1341s319.3,143,319.3,319.3
			S649.7,1979.6,473.4,1979.6z"/>
	</g>
</g>
</svg>
